<svg width="278" height="80" viewBox="0 0 278 80" fill="none" xmlns="http://www.w3.org/2000/svg">
	<path d="M4.01935 64.9688L34.0871 64.9688L32.8349 70.8615L2.76712 70.8615L4.01935 64.9688ZM0.881443 79.7006L30.964 79.7006L31.5827 76.7543L1.5002 76.7543L0.866697 79.7006L0.881443 79.7006ZM84.1019 70.8615L117.956 70.8615L120.504 64.9688L84.1314 64.9688L84.1019 70.8615ZM135.884 70.8615L169.164 70.8615L171.624 64.9688L135.796 64.9688L135.884 70.8615ZM183.763 70.8615L213.963 70.8615L215.216 64.9688L185.015 64.9688L183.763 70.8615ZM181.877 79.7007L212.078 79.7007L212.711 76.7543L182.511 76.7543L181.877 79.7007ZM136.017 79.7007L165.481 79.7007L166.704 76.7543L135.958 76.7543L136.002 79.7007L136.017 79.7007ZM84.0577 79.7007L114.14 79.7007L115.407 76.7543L84.0724 76.7543L84.0724 79.7007L84.0577 79.7007Z" fill="white"/>
	<path d="M249.6 4.24982e-05L174.895 2.94363e-05L165.363 25.1916L155.832 51.1197L155.463 25.1916L154.977 2.59538e-05L131.008 2.1763e-05L119.886 25.1915L108.513 50.7514L109.986 25.1915L111.091 1.82805e-05L19.1197 2.19974e-06L6.53862 59.0749L36.5917 59.0749L37.8144 53.3147L70.5782 53.3147L74.6147 34.2369L41.851 34.2369L44.9005 20.0501L84.4261 20.0501L84.2052 59.0749L125.602 59.0749L135.531 35.7101L135.649 59.0749L176.559 59.0749L198.981 5.33298L187.535 59.0749L217.602 59.0749L218.825 53.2411L221.506 53.2411L245.225 53.2411C262.004 53.2411 273.805 44.564 276.692 29.1692C277.149 26.9741 277.267 25.0001 277.267 23.0407C277.267 9.04543 267.087 0.0147774 249.615 0.0147744L249.6 4.24982e-05ZM248.908 27.7697C247.744 33.2057 244.282 35.8722 239.185 35.8722L225.189 35.8722L228.784 18.4002L241.159 18.4002C246.477 18.4002 249.143 20.8309 249.143 25.221C249.143 26.0313 249.143 26.8415 248.908 27.7697Z" fill="white"/>
</svg>
