<svg width="277" height="80" viewBox="0 0 277 80" fill="none" xmlns="http://www.w3.org/2000/svg">
	<path d="M3.69073 64.9688L33.7585 64.9688L32.5063 70.8615L2.43851 70.8615L3.69073 64.9688ZM0.55283 79.7006L30.6354 79.7006L31.2541 76.7543L1.17159 76.7543L0.538083 79.7006L0.55283 79.7006ZM83.7733 70.8615L117.627 70.8615L120.176 64.9688L83.8027 64.9688L83.7733 70.8615ZM135.556 70.8615L168.835 70.8615L171.295 64.9688L135.467 64.9688L135.556 70.8615ZM183.435 70.8615L213.635 70.8615L214.887 64.9688L184.687 64.9688L183.435 70.8615ZM181.549 79.7007L211.749 79.7007L212.383 76.7543L182.182 76.7543L181.549 79.7007ZM135.688 79.7007L165.152 79.7007L166.375 76.7543L135.63 76.7543L135.674 79.7007L135.688 79.7007ZM83.7291 79.7007L113.812 79.7007L115.079 76.7543L83.7438 76.7543L83.7438 79.7007L83.7291 79.7007Z" fill="black"/>
	<path d="M249.271 4.24982e-05L174.566 2.94363e-05L165.034 25.1916L155.503 51.1197L155.135 25.1916L154.648 2.59538e-05L130.68 2.1763e-05L119.557 25.1915L108.184 50.7514L109.657 25.1915L110.762 1.82805e-05L18.791 2.19974e-06L6.20995 59.0749L36.263 59.0749L37.4858 53.3147L70.2495 53.3147L74.286 34.2369L41.5223 34.2369L44.5718 20.0501L84.0975 20.0501L83.8765 59.0749L125.273 59.0749L135.202 35.7101L135.32 59.0749L176.231 59.0749L198.653 5.33298L187.206 59.0749L217.274 59.0749L218.496 53.2411L221.178 53.2411L244.896 53.2411C261.676 53.2411 273.476 44.564 276.363 29.1692C276.82 26.9741 276.938 25.0001 276.938 23.0407C276.938 9.04543 266.758 0.0147774 249.286 0.0147744L249.271 4.24982e-05ZM248.579 27.7697C247.415 33.2057 243.953 35.8722 238.856 35.8722L224.861 35.8722L228.455 18.4002L240.83 18.4002C246.148 18.4002 248.815 20.8309 248.815 25.221C248.815 26.0313 248.815 26.8415 248.579 27.7697Z" fill="black"/>
</svg>
