<svg width="512" height="512" viewBox="0 0 512 512" fill="none" xmlns="http://www.w3.org/2000/svg">
	<rect x="6.10352e-05" width="512" height="512" fill="black"/>
	<path d="M89.992 288.27L128.066 288.27L126.481 295.731L88.4063 295.731L89.992 288.27ZM86.0185 306.924L124.111 306.924L124.895 303.193L86.802 303.193L85.9998 306.924L86.0185 306.924ZM191.399 295.731L234.268 295.731L237.495 288.27L191.436 288.27L191.399 295.731ZM256.97 295.731L299.111 295.731L302.227 288.27L256.858 288.27L256.97 295.731ZM317.598 295.731L355.84 295.731L357.426 288.27L319.184 288.27L317.598 295.731ZM315.21 306.924L353.453 306.924L354.255 303.193L316.012 303.193L315.21 306.924ZM257.138 306.924L294.448 306.924L295.996 303.193L257.064 303.193L257.12 306.924L257.138 306.924ZM191.343 306.924L229.436 306.924L231.04 303.193L191.362 303.193L191.362 306.924L191.343 306.924Z" fill="white"/>
	<path d="M400.966 206L306.368 206L294.299 237.9L282.229 270.732L281.763 237.9L281.147 206L250.796 206L236.712 237.9L222.31 270.266L224.176 237.9L225.575 206L109.113 206L93.1821 280.805L131.238 280.805L132.786 273.511L174.274 273.511L179.386 249.354L137.897 249.354L141.759 231.389L191.81 231.389L191.53 280.805L243.95 280.805L256.523 251.219L256.672 280.805L308.476 280.805L336.869 212.753L322.374 280.805L360.448 280.805L361.997 273.418L365.392 273.418L395.426 273.418C416.674 273.418 431.616 262.431 435.272 242.936C435.851 240.157 436 237.657 436 235.176C436 217.454 423.11 206.019 400.985 206.019L400.966 206ZM400.09 241.164C398.616 248.048 394.232 251.424 387.777 251.424L370.055 251.424L374.607 229.3L390.277 229.3C397.012 229.3 400.388 232.378 400.388 237.937C400.388 238.963 400.388 239.989 400.09 241.164Z" fill="white"/>
</svg>
