<svg width="512" height="512" viewBox="0 0 512 512" fill="none" xmlns="http://www.w3.org/2000/svg">
	<rect x="0.000106812" width="512" height="512" fill="black" fill-opacity="0.1"/>
	<path d="M89.9921 288.229L128.066 288.229L126.481 295.69L88.4065 295.69L89.9921 288.229ZM86.0187 306.883L124.112 306.883L124.895 303.152L86.8022 303.152L86 306.883L86.0187 306.883ZM191.399 295.69L234.267 295.69L237.495 288.229L191.436 288.229L191.399 295.69ZM256.97 295.69L299.111 295.69L302.226 288.229L256.858 288.229L256.97 295.69ZM317.598 295.69L355.84 295.69L357.425 288.229L319.183 288.229L317.598 295.69ZM315.21 306.883L353.452 306.883L354.254 303.152L316.012 303.152L315.21 306.883ZM257.138 306.883L294.447 306.883L295.996 303.152L257.063 303.152L257.119 306.883L257.138 306.883ZM191.343 306.883L229.436 306.883L231.04 303.152L191.362 303.152L191.362 306.883L191.343 306.883Z" fill="black"/>
	<path d="M400.967 206L306.368 206L294.299 237.9L282.229 270.732L281.763 237.9L281.147 206L250.796 206L236.712 237.9L222.31 270.265L224.176 237.9L225.575 206L109.113 206L93.1823 280.805L131.238 280.805L132.786 273.511L174.274 273.511L179.386 249.354L137.898 249.354L141.759 231.389L191.81 231.389L191.53 280.805L243.95 280.805L256.523 251.219L256.672 280.805L308.476 280.805L336.869 212.753L322.374 280.805L360.448 280.805L361.997 273.418L365.392 273.418L395.426 273.418C416.674 273.418 431.616 262.43 435.273 242.936C435.851 240.157 436 237.657 436 235.176C436 217.454 423.11 206.019 400.985 206.019L400.967 206ZM400.09 241.164C398.616 248.048 394.232 251.424 387.778 251.424L370.056 251.424L374.607 229.3L390.277 229.3C397.012 229.3 400.388 232.378 400.388 237.937C400.388 238.963 400.388 239.989 400.09 241.164Z" fill="black"/>
</svg>
