<svg width="527" height="90" viewBox="0 0 527 90" fill="none" xmlns="http://www.w3.org/2000/svg">
	<path d="M3.52472 70.8555L36.3178 70.8555L34.9521 77.2823L2.15901 77.2823L3.52472 70.8555ZM84.6639 77.2823L116.236 77.2824L117.585 70.8555L86.0296 70.8555L84.6639 77.2823ZM153.656 77.2824L214.824 77.2824C216.784 75.3704 218.584 73.2334 220.206 70.8555L149.639 70.8555C150.7 73.2013 152.05 75.3543 153.64 77.2824L153.656 77.2824ZM237.206 77.2824L298.373 77.2824C300.333 75.3704 302.133 73.2335 303.756 70.8555L233.189 70.8555C234.249 73.2013 235.599 75.3543 237.206 77.2824ZM316.015 77.2824L352.937 77.2824L355.717 70.8555L316.047 70.8555L316.015 77.2824ZM372.491 77.2824L408.787 77.2824L411.47 70.8555L372.395 70.8555L372.491 77.2824ZM424.709 77.2824L457.647 77.2824L459.013 70.8555L426.075 70.8555L424.709 77.2824ZM422.653 86.9227L455.59 86.9227L456.281 83.7093L423.344 83.7093L422.653 86.9227ZM372.636 86.9227L404.77 86.9227L406.103 83.7093L372.571 83.7093L372.62 86.9227L372.636 86.9227ZM315.967 86.9227L348.776 86.9227L350.174 83.7093L315.999 83.7093L315.999 86.9227L315.967 86.9227ZM267.106 89.0596C275.381 89.0596 283.045 87.2762 289.617 83.7092L244.821 83.7092C250.718 87.1797 258.253 89.0596 267.106 89.0596ZM183.557 89.0596C191.832 89.0596 199.496 87.2761 206.067 83.7092L161.272 83.7092C167.169 87.1797 174.704 89.0596 183.557 89.0596ZM82.6073 86.9226L114.211 86.9226L114.886 83.7092L83.2821 83.7092L82.5912 86.9226L82.6073 86.9226ZM0.102414 86.9226L32.9116 86.9226L33.5864 83.7092L0.793303 83.7092L0.102414 86.9226Z" fill="black"/>
	<path d="M44.7692 37.3401L80.5026 37.3401L76.1002 58.1471L40.3668 58.1471L39.0332 64.4293L6.25621 64.4293L19.9776 2.39912e-06L100.394 1.64595e-05L95.8628 21.8674L48.1272 21.8674L44.7853 37.3401L44.7692 37.3401ZM229.172 47.2054C229.172 50.9329 228.642 54.8051 227.838 59.079L176.761 59.079C176.52 61.0552 176.375 62.8066 176.359 64.4293L146.78 64.4293C146.764 63.8991 146.747 63.3528 146.747 62.8066C146.747 59.8663 147.021 56.7974 147.679 53.4715C152.21 30.126 169.948 16.4046 192.619 16.4046C215.29 16.4046 229.156 28.6799 229.156 47.2054L229.172 47.2054ZM201.167 44.008C201.167 38.272 197.439 34.5444 191.96 34.5444C186.482 34.5444 182.352 38.4166 179.283 47.607L200.894 47.607L200.942 47.2054C201.054 46.0325 201.167 44.956 201.167 44.008ZM312.721 47.2054C312.721 50.933 312.191 54.8051 311.388 59.079L260.31 59.079C260.069 61.0553 259.925 62.8066 259.908 64.4294L230.329 64.4294C230.313 63.8991 230.297 63.3529 230.297 62.8066C230.297 59.8663 230.57 56.7975 231.229 53.4716C235.76 30.126 253.498 16.4046 276.168 16.4046C298.839 16.4046 312.705 28.6799 312.705 47.2054L312.721 47.2054ZM284.716 44.008C284.716 38.272 280.989 34.5444 275.51 34.5444C270.031 34.5444 265.902 38.4166 262.833 47.607L284.443 47.607L284.491 47.2054C284.604 46.0325 284.716 44.956 284.716 44.008ZM526.672 25.1131C526.672 27.2661 526.543 29.403 526.045 31.797C522.896 48.5872 510.026 58.0507 491.725 58.0507L462.933 58.0507L461.6 64.4294L428.806 64.4294L441.291 5.81639L416.836 64.4294L372.218 64.4294L372.089 38.9469L361.26 64.4294L316.111 64.4294L316.481 5.42414e-05L345.418 5.93009e-05L344.213 27.4749L342.606 55.3514L355.01 27.4749L367.141 6.3099e-05L393.282 6.76697e-05L393.812 27.4749L394.214 55.7531L404.609 27.4749L415.005 7.14679e-05L496.481 8.57137e-05C515.537 8.90455e-05 526.639 9.84926 526.639 25.1131L526.672 25.1131ZM496.015 27.5071C496.015 22.7191 493.107 20.068 487.307 20.068L473.811 20.068L469.906 39.1236L485.17 39.1236C490.729 39.1236 494.505 36.2155 495.774 30.2867C496.031 29.2745 496.031 28.3908 496.031 27.5071L496.015 27.5071ZM155.279 17.3365C154.347 17.208 153.271 17.208 152.21 17.208C142.072 17.208 133.942 21.6104 127.676 29.7403L130.07 18.3969L98.5942 18.3969L88.7611 64.4293L120.285 64.4293L124.189 45.8718C128.061 42.5298 133.926 40.8106 139.79 40.8106C143.389 40.8106 146.86 41.4694 149.929 42.6744L155.263 17.3365L155.279 17.3365Z" fill="black"/>
</svg>
