<svg width="527" height="90" viewBox="0 0 527 90" fill="none" xmlns="http://www.w3.org/2000/svg">
	<path d="M3.85309 70.8555L36.6462 70.8555L35.2805 77.2823L2.48738 77.2823L3.85309 70.8555ZM84.9923 77.2823L116.564 77.2824L117.914 70.8555L86.358 70.8555L84.9923 77.2823ZM153.985 77.2824L215.152 77.2824C217.113 75.3704 218.912 73.2334 220.535 70.8555L149.968 70.8555C151.028 73.2013 152.378 75.3543 153.969 77.2824L153.985 77.2824ZM237.534 77.2824L298.702 77.2824C300.662 75.3704 302.461 73.2335 304.084 70.8555L233.517 70.8555C234.578 73.2013 235.927 75.3543 237.534 77.2824ZM316.343 77.2824L353.266 77.2824L356.045 70.8555L316.375 70.8555L316.343 77.2824ZM372.819 77.2824L409.115 77.2824L411.798 70.8555L372.723 70.8555L372.819 77.2824ZM425.038 77.2824L457.975 77.2824L459.341 70.8555L426.403 70.8555L425.038 77.2824ZM422.981 86.9227L455.919 86.9227L456.61 83.7093L423.672 83.7093L422.981 86.9227ZM372.964 86.9227L405.098 86.9227L406.432 83.7093L372.9 83.7093L372.948 86.9227L372.964 86.9227ZM316.295 86.9227L349.104 86.9227L350.502 83.7093L316.327 83.7093L316.327 86.9227L316.295 86.9227ZM267.435 89.0596C275.709 89.0596 283.373 87.2762 289.945 83.7092L245.15 83.7092C251.046 87.1797 258.582 89.0596 267.435 89.0596ZM183.886 89.0596C192.16 89.0596 199.824 87.2761 206.396 83.7092L161.6 83.7092C167.497 87.1797 175.033 89.0596 183.886 89.0596ZM82.9357 86.9226L114.54 86.9226L115.215 83.7092L83.6105 83.7092L82.9196 86.9226L82.9357 86.9226ZM0.430783 86.9226L33.2399 86.9226L33.9147 83.7092L1.12167 83.7092L0.430783 86.9226Z" fill="white"/>
	<path d="M45.0977 37.3401L80.831 37.3401L76.4286 58.1471L40.6953 58.1471L39.3617 64.4293L6.58471 64.4293L20.3061 2.39912e-06L100.722 1.64595e-05L96.1913 21.8674L48.4557 21.8674L45.1138 37.3401L45.0977 37.3401ZM229.5 47.2054C229.5 50.9329 228.97 54.8051 228.167 59.079L177.089 59.079C176.848 61.0552 176.704 62.8066 176.688 64.4293L147.108 64.4293C147.092 63.8991 147.076 63.3528 147.076 62.8066C147.076 59.8663 147.349 56.7974 148.008 53.4715C152.539 30.126 170.277 16.4046 192.948 16.4046C215.618 16.4046 229.484 28.6799 229.484 47.2054L229.5 47.2054ZM201.495 44.008C201.495 38.272 197.768 34.5444 192.289 34.5444C186.81 34.5444 182.681 38.4166 179.612 47.607L201.222 47.607L201.27 47.2054C201.383 46.0325 201.495 44.956 201.495 44.008ZM313.05 47.2054C313.05 50.933 312.519 54.8051 311.716 59.079L260.639 59.079C260.398 61.0553 260.253 62.8066 260.237 64.4294L230.657 64.4294C230.641 63.8991 230.625 63.3529 230.625 62.8066C230.625 59.8663 230.898 56.7975 231.557 53.4716C236.088 30.126 253.826 16.4046 276.497 16.4046C299.168 16.4046 313.034 28.6799 313.034 47.2054L313.05 47.2054ZM285.045 44.008C285.045 38.272 281.317 34.5444 275.838 34.5444C270.359 34.5444 266.23 38.4166 263.161 47.607L284.772 47.607L284.82 47.2054C284.932 46.0325 285.045 44.956 285.045 44.008ZM527 25.1131C527 27.2661 526.871 29.403 526.373 31.797C523.224 48.5872 510.354 58.0507 492.054 58.0507L463.262 58.0507L461.928 64.4294L429.135 64.4294L441.619 5.81639L417.165 64.4294L372.546 64.4294L372.418 38.9469L361.589 64.4294L316.44 64.4294L316.809 5.42414e-05L345.746 5.93009e-05L344.541 27.4749L342.935 55.3514L355.338 27.4749L367.469 6.3099e-05L393.61 6.76697e-05L394.141 27.4749L394.542 55.7531L404.938 27.4749L415.333 7.14679e-05L496.81 8.57137e-05C515.865 8.90455e-05 526.968 9.84926 526.968 25.1131L527 25.1131ZM496.344 27.5071C496.344 22.7191 493.436 20.068 487.635 20.068L474.139 20.068L470.235 39.1236L485.499 39.1236C491.058 39.1236 494.834 36.2155 496.103 30.2867C496.36 29.2745 496.36 28.3908 496.36 27.5071L496.344 27.5071ZM155.608 17.3365C154.676 17.208 153.599 17.208 152.539 17.208C142.4 17.208 134.27 21.6104 128.004 29.7403L130.398 18.3969L98.9227 18.3969L89.0896 64.4293L120.613 64.4293L124.518 45.8718C128.39 42.5298 134.254 40.8106 140.119 40.8106C143.718 40.8106 147.188 41.4694 150.257 42.6744L155.592 17.3365L155.608 17.3365Z" fill="white"/>
</svg>
